HIERARCHY
ROOT Hips
{
    OFFSET 0.000000 0.000000 0.000000
    CHANNELS 6 Xposition Yposition Zposition Zrotation Xrotation Yrotation
    JOINT Spine
    {
        OFFSET 0.000001 7.292995 0.000000
        CHANNELS 3 Zrotation Xrotation Yrotation
        JOINT Spine1
        {
            OFFSET -0.000000 20.255388 0.000001
            CHANNELS 3 Zrotation Xrotation Yrotation
            JOINT Neck
            {
                OFFSET 0.000001 20.786594 0.000000
                CHANNELS 3 Zrotation Xrotation Yrotation
                JOINT Head
                {
                    OFFSET 0.000003 12.530788 1.776080
                    CHANNELS 3 Zrotation Xrotation Yrotation
                    End Site
                    {
                        OFFSET 0.000000 17.760757 0.000000
                    }
                }
            }
            JOINT LeftShoulder
            {
                OFFSET 3.550532 15.465697 -0.908801
                CHANNELS 3 Zrotation Xrotation Yrotation
                JOINT LeftArm
                {
                    OFFSET 12.513301 -0.000005 0.000001
                    CHANNELS 3 Zrotation Xrotation Yrotation
                    JOINT LeftForeArm
                    {
                        OFFSET 24.225992 0.000005 0.000000
                        CHANNELS 3 Zrotation Xrotation Yrotation
                        JOINT LeftHand
                        {
                            OFFSET 20.711395 -0.000004 0.000000
                            CHANNELS 3 Zrotation Xrotation Yrotation
                            JOINT LeftHandThumb1
                            {
                                OFFSET 2.121964 -2.411326 3.375861
                                CHANNELS 3 Zrotation Xrotation Yrotation
                                JOINT LeftHandThumb2
                                {
                                    OFFSET 2.803212 -0.000001 -0.000002
                                    CHANNELS 3 Zrotation Xrotation Yrotation
                                    JOINT LeftHandThumb3
                                    {
                                        OFFSET 2.395929 0.000000 0.000000
                                        CHANNELS 3 Zrotation Xrotation Yrotation
                                        End Site
                                        {
                                            OFFSET 2.127676 0.000000 0.000000
                                        }
                                    }
                                }
                            }
                            JOINT LeftHandIndex1
                            {
                                OFFSET 8.680776 0.000004 3.375861
                                CHANNELS 3 Zrotation Xrotation Yrotation
                                JOINT LeftHandIndex2
                                {
                                    OFFSET 4.218180 -0.000002 0.000001
                                    CHANNELS 3 Zrotation Xrotation Yrotation
                                    JOINT LeftHandIndex3
                                    {
                                        OFFSET 2.109090 0.000001 -0.000000
                                        CHANNELS 3 Zrotation Xrotation Yrotation
                                        End Site
                                        {
                                            OFFSET 1.872952 0.000000 0.000000
                                        }
                                    }
                                }
                            }
                            JOINT LeftHandMiddle1
                            {
                                OFFSET 8.680775 0.000001 1.118862
                                CHANNELS 3 Zrotation Xrotation Yrotation
                                JOINT LeftHandMiddle2
                                {
                                    OFFSET 4.640000 0.000002 -0.000000
                                    CHANNELS 3 Zrotation Xrotation Yrotation
                                    JOINT LeftHandMiddle3
                                    {
                                        OFFSET 2.530906 0.000005 0.000000
                                        CHANNELS 3 Zrotation Xrotation Yrotation
                                        End Site
                                        {
                                            OFFSET 2.247544 0.000000 0.000000
                                        }
                                    }
                                }
                            }
                            JOINT LeftHandRing1
                            {
                                OFFSET 8.198514 -0.000004 -1.118859
                                CHANNELS 3 Zrotation Xrotation Yrotation
                                JOINT LeftHandRing2
                                {
                                    OFFSET 4.218182 -0.000003 -0.000001
                                    CHANNELS 3 Zrotation Xrotation Yrotation
                                    JOINT LeftHandRing3
                                    {
                                        OFFSET 2.109086 0.000004 0.000001
                                        CHANNELS 3 Zrotation Xrotation Yrotation
                                        End Site
                                        {
                                            OFFSET 1.872952 0.000000 0.000000
                                        }
                                    }
                                }
                            }
                            JOINT LeftHandPinky1
                            {
                                OFFSET 7.716242 0.000005 -3.375859
                                CHANNELS 3 Zrotation Xrotation Yrotation
                                JOINT LeftHandPinky2
                                {
                                    OFFSET 3.374535 0.000004 0.000002
                                    CHANNELS 3 Zrotation Xrotation Yrotation
                                    JOINT LeftHandPinky3
                                    {
                                        OFFSET 1.687275 0.000002 -0.000001
                                        CHANNELS 3 Zrotation Xrotation Yrotation
                                        End Site
                                        {
                                            OFFSET 1.498360 0.000000 0.000000
                                        }
                                    }
                                }
                            }
                        }
                    }
                }
            }
            JOINT RightShoulder
            {
                OFFSET -3.550531 15.465694 -0.908802
                CHANNELS 3 Zrotation Xrotation Yrotation
                JOINT RightArm
                {
                    OFFSET -12.513298 -0.000004 0.000001
                    CHANNELS 3 Zrotation Xrotation Yrotation
                    JOINT RightForeArm
                    {
                        OFFSET -24.225996 -0.000002 -0.000000
                        CHANNELS 3 Zrotation Xrotation Yrotation
                        JOINT RightHand
                        {
                            OFFSET -20.711401 0.000005 0.000001
                            CHANNELS 3 Zrotation Xrotation Yrotation
                            JOINT RightHandThumb1
                            {
                                OFFSET -2.121970 -2.411334 3.375861
                                CHANNELS 3 Zrotation Xrotation Yrotation
                                JOINT RightHandThumb2
                                {
                                    OFFSET -2.803210 0.000003 -0.000004
                                    CHANNELS 3 Zrotation Xrotation Yrotation
                                    JOINT RightHandThumb3
                                    {
                                        OFFSET -2.395930 -0.000001 0.000002
                                        CHANNELS 3 Zrotation Xrotation Yrotation
                                        End Site
                                        {
                                            OFFSET -2.127676 0.000000 0.000000
                                        }
                                    }
                                }
                            }
                            JOINT RightHandIndex1
                            {
                                OFFSET -8.680779 0.000001 3.375860
                                CHANNELS 3 Zrotation Xrotation Yrotation
                                JOINT RightHandIndex2
                                {
                                    OFFSET -4.218180 0.000000 -0.000000
                                    CHANNELS 3 Zrotation Xrotation Yrotation
                                    JOINT RightHandIndex3
                                    {
                                        OFFSET -2.109090 0.000001 -0.000000
                                        CHANNELS 3 Zrotation Xrotation Yrotation
                                        End Site
                                        {
                                            OFFSET -1.872952 0.000000 0.000000
                                        }
                                    }
                                }
                            }
                            JOINT RightHandMiddle1
                            {
                                OFFSET -8.680780 0.000001 1.118860
                                CHANNELS 3 Zrotation Xrotation Yrotation
                                JOINT RightHandMiddle2
                                {
                                    OFFSET -4.640000 -0.000002 0.000001
                                    CHANNELS 3 Zrotation Xrotation Yrotation
                                    JOINT RightHandMiddle3
                                    {
                                        OFFSET -2.530910 0.000001 -0.000000
                                        CHANNELS 3 Zrotation Xrotation Yrotation
                                        End Site
                                        {
                                            OFFSET -2.247544 0.000000 0.000000
                                        }
                                    }
                                }
                            }
                            JOINT RightHandRing1
                            {
                                OFFSET -8.198519 0.000005 -1.118860
                                CHANNELS 3 Zrotation Xrotation Yrotation
                                JOINT RightHandRing2
                                {
                                    OFFSET -4.218180 -0.000006 0.000000
                                    CHANNELS 3 Zrotation Xrotation Yrotation
                                    JOINT RightHandRing3
                                    {
                                        OFFSET -2.109090 0.000001 -0.000000
                                        CHANNELS 3 Zrotation Xrotation Yrotation
                                        End Site
                                        {
                                            OFFSET -1.872952 0.000000 0.000000
                                        }
                                    }
                                }
                            }
                            JOINT RightHandPinky1
                            {
                                OFFSET -7.716248 -0.000002 -3.375859
                                CHANNELS 3 Zrotation Xrotation Yrotation
                                JOINT RightHandPinky2
                                {
                                    OFFSET -3.374540 0.000000 0.000000
                                    CHANNELS 3 Zrotation Xrotation Yrotation
                                    JOINT RightHandPinky3
                                    {
                                        OFFSET -1.687270 0.000004 0.000001
                                        CHANNELS 3 Zrotation Xrotation Yrotation
                                        End Site
                                        {
                                            OFFSET -1.498360 0.000000 0.000000
                                        }
                                    }
                                }
                            }
                        }
                    }
                }
            }
        }
    }
    JOINT LeftUpLeg
    {
        OFFSET 8.880376 -0.000000 -0.000000
        CHANNELS 3 Zrotation Xrotation Yrotation
        JOINT LeftLeg
        {
            OFFSET -0.000001 -40.387405 -0.000001
            CHANNELS 3 Zrotation Xrotation Yrotation
            JOINT LeftFoot
            {
                OFFSET -0.000001 -36.911297 -0.000001
                CHANNELS 3 Zrotation Xrotation Yrotation
                JOINT LeftToeBase
                {
                    OFFSET -0.000002 -5.772240 13.320604
                    CHANNELS 3 Zrotation Xrotation Yrotation
                    End Site
                    {
                        OFFSET 0.000000 0.000000 3.552151
                    }
                }
            }
        }
    }
    JOINT RightUpLeg
    {
        OFFSET -8.880376 0.000000 0.000000
        CHANNELS 3 Zrotation Xrotation Yrotation
        JOINT RightLeg
        {
            OFFSET -0.000001 -40.387390 0.000000
            CHANNELS 3 Zrotation Xrotation Yrotation
            JOINT RightFoot
            {
                OFFSET 0.000002 -36.911297 -0.000001
                CHANNELS 3 Zrotation Xrotation Yrotation
                JOINT RightToeBase
                {
                    OFFSET 0.000001 -5.772238 13.320600
                    CHANNELS 3 Zrotation Xrotation Yrotation
                    End Site
                    {
                        OFFSET 0.000000 0.000000 3.552151
                    }
                }
            }
        }
    }
}
MOTION
Frames: 4
Frame Time: 0.013889
31.702408    82.050034    18.303616    8.978071    5.105129    -12.778714    -1.173389    -10.282274    -6.545976    7.044808    14.143930    -7.997155    1.469451    -25.915813    14.483097    -1.770120    4.144265    15.444067    10.748861    -8.754205    -14.377887    -42.282013    28.716915    -69.265022    33.340256    -6.353466    -99.548264    52.966312    -14.310162    -11.214126    29.157736    35.904434    -45.559147    -11.151797    0.325894    23.315332    -0.000000    0.000000    -0.000000    6.022334    17.906969    2.905875    5.729576    0.000003    -0.000000    5.729573    0.000003    -0.000000    5.800521    8.954669    1.475998    5.729579    -0.000000    -0.000002    5.729568    0.000002    0.000002    5.800525    -8.954677    -3.722848    5.729573    0.000002    0.000003    5.729582    -0.000002    0.000000    6.022324    -17.906977    -7.399574    5.729582    -0.000002    -0.000002    5.729573    0.000007    0.000006    2.023045    4.908459    10.236062    7.236437    49.833340    28.727909    -1.654392    0.545071    71.769592    -0.424692    36.864212    10.723779    -31.732943    34.016666    43.233749    16.712593    -2.067641    -23.230722    -0.000000    0.000000    -0.000000    -6.022323    17.906977    7.153914    -5.729577    -0.000002    0.000001    -5.729578    -0.000000    0.000000    -5.800514    8.954668    3.553903    -5.729581    0.000004    -0.000002    -5.729577    -0.000002    0.000002    -5.800517    -8.954672    2.201731    -5.729576    -0.000003    -0.000001    -5.729581    0.000003    0.000000    -6.022321    -17.906971    4.357341    -5.729580    0.000007    -0.000002    -5.729576    -0.000000    0.000001    -10.635890    -35.070080    -3.625912    0.000000    58.680733    -0.000003    -12.337997    9.680923    4.794851    0.000000    0.931829    -0.000000    -15.288580    -20.127998    -15.913257    0.000002    37.521572    -0.000008    8.993241    -14.224702    13.262017    0.000000    -0.275834    -0.000003    
31.645426    81.881256    18.194958    8.959176    4.864894    -12.899353    -1.189103    -10.296885    -6.623664    7.225380    14.715278    -8.170090    1.970937    -25.602657    14.725947    -1.558039    4.328877    15.438205    11.048703    -8.803235    -14.491910    -41.966492    28.303373    -69.262634    33.124176    -6.180432    -99.369247    52.684219    -14.423903    -11.370416    29.259661    35.819431    -45.662457    -11.186081    0.311101    23.315519    -0.000000    0.000000    -0.000000    6.022320    17.906973    2.888163    5.729579    -0.000002    0.000003    5.729582    -0.000003    -0.000001    5.800518    8.954667    1.467137    5.729568    0.000002    0.000002    5.729582    0.000000    0.000002    5.800513    -8.954667    -3.661498    5.729579    -0.000002    0.000003    5.729586    -0.000000    -0.000005    6.022321    -17.906971    -7.276869    5.729579    -0.000009    -0.000003    5.729583    0.000007    0.000001    2.079995    4.821712    10.626018    7.593126    49.323578    28.248705    -1.237093    0.410540    71.643806    -0.211756    37.087303    10.618426    -31.621170    34.115902    43.011700    16.726662    -2.073677    -23.230209    -0.000000    0.000000    -0.000000    -6.022316    17.906979    7.204618    -5.729578    0.000001    0.000005    -5.729577    0.000000    -0.000006    -5.800514    8.954676    3.579248    -5.729577    0.000002    0.000002    -5.729579    -0.000002    0.000003    -5.800513    -8.954667    2.184894    -5.729575    -0.000003    0.000001    -5.729577    0.000000    -0.000003    -6.022318    -17.906973    4.323668    -5.729578    0.000004    -0.000002    -5.729580    0.000000    -0.000001    -11.075608    -35.647022    -3.935209    0.000001    59.641609    -0.000001    -12.621130    10.872640    6.058564    0.000000    1.215069    0.000000    -15.284799    -20.381737    -15.786785    -0.000001    38.311752    0.000001    8.698549    -14.582160    13.216496    0.000001    -0.456997    -0.000003    
31.511984    81.657654    18.209444    8.925151    4.626657    -13.009705    -1.209263    -10.349218    -6.701594    7.456593    15.094042    -8.340747    2.594649    -25.136333    15.018230    -1.278328    4.620795    15.417953    11.461829    -8.608750    -14.723461    -41.642136    28.092430    -69.237373    32.897240    -6.053480    -99.259384    52.193745    -14.447843    -11.661092    29.411020    35.693653    -45.744324    -11.228241    0.292950    23.315737    -0.000000    0.000000    -0.000000    6.022314    17.906975    2.924936    5.729576    -0.000002    0.000000    5.729579    0.000002    -0.000000    5.800513    8.954666    1.485528    5.729576    0.000002    -0.000002    5.729579    0.000000    -0.000000    5.800519    -8.954675    -3.579904    5.729576    0.000003    0.000002    5.729586    -0.000004    -0.000005    6.022318    -17.906971    -7.113696    5.729577    -0.000003    0.000002    5.729584    0.000003    -0.000002    2.196930    4.934228    11.045630    8.452231    48.806873    27.252111    -0.816717    0.272842    71.527824    0.144343    37.594536    10.485396    -31.440451    34.268936    42.716541    16.753405    -2.085147    -23.229242    -0.000000    0.000000    -0.000000    -6.022322    17.906971    7.240108    -5.729575    -0.000003    -0.000007    -5.729578    0.000002    0.000003    -5.800515    8.954674    3.596992    -5.729578    -0.000002    -0.000001    -5.729576    0.000000    -0.000002    -5.800513    -8.954667    2.162497    -5.729578    -0.000003    -0.000006    -5.729578    -0.000000    0.000005    -6.022318    -17.906977    4.278872    -5.729579    0.000003    0.000002    -5.729580    0.000000    -0.000004    -11.543365    -36.283710    -4.238400    0.000001    60.884827    -0.000001    -12.160306    12.248957    7.601986    0.000000    1.047931    -0.000000    -15.186851    -20.590702    -15.511173    -0.000004    39.257626    0.000007    8.226942    -15.260084    12.997903    0.000001    -0.715791    -0.000001    
31.409819    81.495834    18.223635    8.897770    4.499359    -13.064377    -1.203827    -10.232979    -6.746001    7.583423    15.008142    -8.411805    2.998884    -24.704224    15.133632    -1.079849    4.915596    15.316561    11.612741    -8.442830    -14.776952    -41.350563    28.240366    -69.277634    32.650494    -5.931530    -99.161499    51.731289    -14.486341    -11.880460    29.510429    35.612431    -45.725964    -11.271565    0.274271    23.315956    -0.000000    0.000000    -0.000000    6.022312    17.906973    3.019879    5.729580    0.000003    0.000002    5.729584    0.000003    -0.000000    5.800517    8.954670    1.532998    5.729577    -0.000002    -0.000002    5.729587    -0.000002    0.000000    5.800517    -8.954675    -3.513302    5.729584    0.000000    0.000003    5.729580    0.000002    0.000002    6.022326    -17.906975    -6.980486    5.729576    0.000003    0.000002    5.729580    -0.000005    -0.000001    2.393419    5.069296    11.163836    9.025269    48.535805    26.590405    -0.692989    0.231673    71.515343    0.743833    38.050018    10.126280    -31.310072    34.373562    42.564007    16.768913    -2.091798    -23.228674    -0.000000    0.000000    -0.000000    -6.022315    17.906971    7.263943    -5.729580    -0.000003    -0.000002    -5.729578    -0.000000    0.000001    -5.800512    8.954672    3.608919    -5.729578    -0.000002    0.000002    -5.729580    -0.000003    -0.000005    -5.800511    -8.954662    2.154551    -5.729578    0.000000    -0.000005    -5.729579    0.000000    -0.000002    -6.022318    -17.906971    4.262972    -5.729577    0.000000    -0.000003    -5.729580    -0.000000    0.000000    -11.828183    -36.718967    -4.428693    0.000002    61.682457    -0.000003    -11.434541    13.410162    8.692315    -0.000001    0.636651    -0.000001    -15.061260    -20.758060    -15.225376    0.000000    39.896164    -0.000001    7.874471    -15.805483    12.710143    -0.000001    -0.860014    0.000001    
